<svg data-v-423bf9ae="" xmlns="http://www.w3.org/2000/svg" viewBox="0 0 453.0836545200011 60" class="font"><!----><!----><!----><g data-v-423bf9ae="" id="a351386b-5f23-4ad6-b0fe-babf17a84a0d" fill="black" transform="matrix(5.226481044642261,0,0,5.226481044642261,-3.135882491459313,-13.379790698385385)"><path d="M4.23 14.04Q3.22 14.04 2.39 13.57Q1.57 13.10 1.08 12.24Q0.60 11.38 0.60 10.28L0.60 10.28Q0.60 9.11 1.11 8.26Q1.62 7.41 2.45 6.97Q3.28 6.52 4.23 6.52L4.23 6.52Q5.03 6.52 5.68 6.80Q6.34 7.07 6.73 7.56Q7.11 8.05 7.11 8.67L7.11 8.67Q7.11 9.13 6.87 9.37Q6.64 9.62 6.24 9.62L6.24 9.62Q5.87 9.62 5.61 9.37Q5.36 9.11 5.36 8.74L5.36 8.74Q5.57 8.60 5.66 8.43Q5.74 8.26 5.74 8.01L5.74 8.01Q5.74 7.49 5.33 7.16Q4.91 6.83 4.23 6.83L4.23 6.83Q3.22 6.83 2.68 7.55Q2.14 8.27 2.14 9.58L2.14 9.58L2.14 10.98Q2.14 12.22 2.67 12.98Q3.19 13.73 4.23 13.73L4.23 13.73Q5.18 13.73 5.89 13.20Q6.59 12.66 6.76 11.77L6.76 11.77L7.08 11.77Q6.89 12.81 6.11 13.43Q5.33 14.04 4.23 14.04L4.23 14.04ZM11.89 14.04Q10.88 14.04 10.05 13.57Q9.23 13.10 8.74 12.24Q8.26 11.38 8.26 10.28L8.26 10.28Q8.26 9.17 8.74 8.32Q9.23 7.46 10.05 6.99Q10.88 6.52 11.89 6.52L11.89 6.52Q12.89 6.52 13.72 6.99Q14.55 7.46 15.03 8.32Q15.51 9.17 15.51 10.28L15.51 10.28Q15.51 11.38 15.03 12.24Q14.55 13.10 13.72 13.57Q12.89 14.04 11.89 14.04L11.89 14.04ZM11.89 13.73Q12.92 13.73 13.45 12.98Q13.97 12.22 13.97 10.98L13.97 10.98L13.97 9.58Q13.97 8.33 13.45 7.58Q12.92 6.83 11.89 6.83L11.89 6.83Q10.85 6.83 10.33 7.58Q9.80 8.33 9.80 9.58L9.80 9.58L9.80 10.98Q9.80 12.22 10.33 12.98Q10.85 13.73 11.89 13.73L11.89 13.73ZM20.06 14.04Q19.07 14.04 18.31 13.57Q17.56 13.10 17.14 12.26Q16.72 11.41 16.72 10.28L16.72 10.28Q16.72 9.14 17.14 8.30Q17.56 7.45 18.31 6.99Q19.07 6.52 20.06 6.52L20.06 6.52Q20.87 6.52 21.48 6.95Q22.08 7.38 22.43 8.12L22.43 8.12L22.43 3.12L21.45 2.98L21.45 2.70L23.83 2.70L23.83 13.48L24.81 13.62L24.81 13.90L22.43 13.90L22.43 12.45Q22.08 13.19 21.48 13.62Q20.87 14.04 20.06 14.04L20.06 14.04ZM20.20 13.69Q20.82 13.69 21.32 13.34Q21.81 12.98 22.11 12.38Q22.41 11.79 22.43 11.09L22.43 11.09L22.43 9.48Q22.41 8.78 22.11 8.18Q21.81 7.59 21.32 7.23Q20.82 6.87 20.20 6.87L20.20 6.87Q18.26 6.87 18.26 9.58L18.26 9.58L18.26 10.98Q18.26 13.69 20.20 13.69L20.20 13.69ZM29.40 14.04Q28.36 14.04 27.52 13.57Q26.68 13.10 26.19 12.25Q25.70 11.40 25.70 10.28L25.70 10.28Q25.70 9.16 26.19 8.31Q26.67 7.46 27.49 6.99Q28.31 6.52 29.32 6.52L29.32 6.52Q30.20 6.52 30.90 6.92Q31.60 7.31 31.99 8.00Q32.38 8.69 32.40 9.59L32.40 9.59L27.24 9.59L27.24 10.98Q27.24 12.21 27.80 12.97Q28.35 13.73 29.40 13.73L29.40 13.73Q30.37 13.73 31.11 13.19Q31.85 12.64 32.02 11.77L32.02 11.77L32.34 11.77Q32.14 12.81 31.35 13.43Q30.55 14.04 29.40 14.04L29.40 14.04ZM27.26 9.24L30.86 9.24Q30.86 8.02 30.48 7.43Q30.10 6.83 29.30 6.83L29.30 6.83Q28.36 6.83 27.85 7.49Q27.33 8.15 27.26 9.24L27.26 9.24ZM40.53 14.04Q39.52 14.04 38.70 13.57Q37.87 13.10 37.39 12.24Q36.90 11.38 36.90 10.28L36.90 10.28Q36.90 9.11 37.42 8.26Q37.93 7.41 38.75 6.97Q39.58 6.52 40.53 6.52L40.53 6.52Q41.33 6.52 41.99 6.80Q42.64 7.07 43.03 7.56Q43.41 8.05 43.41 8.67L43.41 8.67Q43.41 9.13 43.18 9.37Q42.94 9.62 42.55 9.62L42.55 9.62Q42.17 9.62 41.92 9.37Q41.66 9.11 41.66 8.74L41.66 8.74Q41.87 8.60 41.96 8.43Q42.04 8.26 42.04 8.01L42.04 8.01Q42.04 7.49 41.63 7.16Q41.22 6.83 40.53 6.83L40.53 6.83Q39.52 6.83 38.98 7.55Q38.44 8.27 38.44 9.58L38.44 9.58L38.44 10.98Q38.44 12.22 38.97 12.98Q39.49 13.73 40.53 13.73L40.53 13.73Q41.48 13.73 42.19 13.20Q42.90 12.66 43.06 11.77L43.06 11.77L43.39 11.77Q43.19 12.81 42.41 13.43Q41.64 14.04 40.53 14.04L40.53 14.04ZM44.34 13.90L44.34 13.62L45.32 13.48L45.32 7.07L44.34 6.93L44.34 6.65L46.72 6.65L46.72 7.73Q47.60 6.52 48.71 6.52L48.71 6.52Q49.24 6.52 49.64 6.80Q50.05 7.07 50.05 7.57L50.05 7.57Q50.05 7.94 49.81 8.18Q49.57 8.43 49.18 8.43L49.18 8.43Q48.73 8.43 48.45 8.08L48.45 8.08Q48.61 7.88 48.61 7.66L48.61 7.66Q48.61 7.42 48.45 7.27Q48.29 7.13 48.02 7.13L48.02 7.13Q47.73 7.13 47.42 7.40Q47.11 7.67 46.72 8.25L46.72 8.25L46.72 13.48L47.84 13.62L47.84 13.90L44.34 13.90ZM52.84 14.04Q51.94 14.04 51.37 13.57Q50.79 13.10 50.79 12.18L50.79 12.18Q50.79 10.86 51.90 10.31Q53.00 9.76 54.46 9.76L54.46 9.76L55.40 9.76L55.40 8.68Q55.40 7.95 55.24 7.55Q55.08 7.15 54.74 6.99Q54.40 6.83 53.83 6.83L53.83 6.83Q53.17 6.83 52.85 7.09Q52.53 7.35 52.53 7.78L52.53 7.78Q52.53 8.19 52.92 8.32L52.92 8.32Q52.92 8.67 52.65 8.93Q52.39 9.20 52.02 9.20L52.02 9.20Q51.63 9.20 51.39 8.98Q51.16 8.76 51.16 8.32L51.16 8.32Q51.16 7.50 51.97 7.01Q52.78 6.52 54.00 6.52L54.00 6.52Q56.80 6.52 56.80 8.96L56.80 8.96L56.80 12.96Q56.80 13.27 56.93 13.43Q57.06 13.59 57.32 13.59L57.32 13.59Q57.55 13.59 57.69 13.43Q57.83 13.27 57.83 12.99L57.83 12.99L58.13 12.99Q58.13 13.48 57.81 13.76Q57.50 14.04 56.94 14.04L56.94 14.04Q56.29 14.04 55.85 13.67Q55.41 13.30 55.40 12.52L55.40 12.52Q55.06 13.23 54.37 13.64Q53.68 14.04 52.84 14.04L52.84 14.04ZM53.61 13.43Q53.98 13.43 54.38 13.20Q54.78 12.98 55.06 12.55Q55.34 12.12 55.40 11.52L55.40 11.52L55.40 10.07L54.46 10.07Q53.31 10.07 52.75 10.58Q52.18 11.09 52.18 12.01L52.18 12.01Q52.18 12.78 52.54 13.10Q52.91 13.43 53.61 13.43L53.61 13.43ZM58.46 13.90L58.46 13.62L59.44 13.48L59.44 7.07L58.46 6.93L58.46 6.65L59.44 6.65L59.44 5.47Q59.44 4.13 59.99 3.35Q60.54 2.56 61.85 2.56L61.85 2.56Q62.68 2.56 63.22 2.96Q63.76 3.36 63.76 4.05L63.76 4.05Q63.76 4.47 63.53 4.73Q63.29 5.00 62.90 5.00L62.90 5.00Q62.55 5.00 62.29 4.73Q62.02 4.47 62.02 4.12L62.02 4.12Q62.50 3.98 62.50 3.46L62.50 3.46Q62.50 3.22 62.31 3.04Q62.12 2.87 61.85 2.87L61.85 2.87Q61.31 2.87 61.08 3.38Q60.84 3.89 60.84 5.04L60.84 5.04L60.84 6.65L62.66 6.65L62.66 6.93L60.84 7.07L60.84 13.48L62.51 13.62L62.51 13.90L58.46 13.90ZM66.12 14.04Q65.20 14.04 64.65 13.58Q64.09 13.12 64.09 12.11L64.09 12.11L64.09 7.07L63.10 6.93L63.10 6.65L64.09 6.65L64.09 5.49L65.49 5.14L65.49 6.65L67.31 6.65L67.31 6.93L65.49 7.07L65.49 12.08Q65.49 13.57 66.56 13.57L66.56 13.57Q66.78 13.57 66.98 13.50Q67.19 13.43 67.31 13.36Q67.42 13.29 67.45 13.26L67.45 13.26L67.63 13.48Q67.00 14.04 66.12 14.04L66.12 14.04ZM71.58 14.04Q70.55 14.04 69.71 13.57Q68.87 13.10 68.38 12.25Q67.89 11.40 67.89 10.28L67.89 10.28Q67.89 9.16 68.37 8.31Q68.85 7.46 69.67 6.99Q70.49 6.52 71.50 6.52L71.50 6.52Q72.38 6.52 73.08 6.92Q73.78 7.31 74.17 8.00Q74.56 8.69 74.58 9.59L74.58 9.59L69.43 9.59L69.43 10.98Q69.43 12.21 69.98 12.97Q70.53 13.73 71.58 13.73L71.58 13.73Q72.55 13.73 73.29 13.19Q74.03 12.64 74.20 11.77L74.20 11.77L74.52 11.77Q74.33 12.81 73.53 13.43Q72.73 14.04 71.58 14.04L71.58 14.04ZM69.44 9.24L73.04 9.24Q73.04 8.02 72.66 7.43Q72.28 6.83 71.48 6.83L71.48 6.83Q70.55 6.83 70.03 7.49Q69.51 8.15 69.44 9.24L69.44 9.24ZM75.52 13.90L75.52 13.62L76.50 13.48L76.50 7.07L75.52 6.93L75.52 6.65L77.90 6.65L77.90 7.73Q78.78 6.52 79.88 6.52L79.88 6.52Q80.42 6.52 80.82 6.80Q81.23 7.07 81.23 7.57L81.23 7.57Q81.23 7.94 80.99 8.18Q80.75 8.43 80.36 8.43L80.36 8.43Q79.91 8.43 79.63 8.08L79.63 8.08Q79.79 7.88 79.79 7.66L79.79 7.66Q79.79 7.42 79.63 7.27Q79.46 7.13 79.20 7.13L79.20 7.13Q78.90 7.13 78.60 7.40Q78.29 7.67 77.90 8.25L77.90 8.25L77.90 13.48L79.02 13.62L79.02 13.90L75.52 13.90ZM84.69 14.04Q83.54 14.04 82.77 13.55Q82.00 13.06 82.00 12.28L82.00 12.28Q82.00 11.87 82.22 11.64Q82.43 11.41 82.80 11.41L82.80 11.41Q83.08 11.41 83.27 11.55Q83.47 11.69 83.55 11.94L83.55 11.94Q83.24 12.28 83.24 12.66L83.24 12.66Q83.24 13.09 83.64 13.41Q84.03 13.73 84.69 13.73L84.69 13.73Q85.57 13.73 86.13 13.34Q86.69 12.94 86.69 12.26L86.69 12.26Q86.69 11.87 86.45 11.68Q86.21 11.48 85.53 11.23L85.53 11.23L83.41 10.46Q82.17 10.01 82.17 8.79L82.17 8.79Q82.17 7.80 82.85 7.16Q83.54 6.52 84.74 6.52L84.74 6.52Q85.74 6.52 86.44 6.98Q87.15 7.43 87.15 8.27L87.15 8.27Q87.15 8.61 86.97 8.81Q86.79 9.02 86.49 9.02L86.49 9.02Q86.20 9.02 86.01 8.86Q85.82 8.69 85.82 8.41L85.82 8.41Q86.00 8.27 86.07 8.11Q86.14 7.95 86.14 7.73L86.14 7.73Q86.14 7.34 85.80 7.08Q85.46 6.83 84.74 6.83L84.74 6.83Q84.13 6.83 83.69 7.02Q83.24 7.21 83.02 7.52Q82.80 7.83 82.80 8.15L82.80 8.15Q82.80 8.48 83.04 8.68Q83.29 8.88 83.94 9.11L83.94 9.11L85.90 9.81Q86.59 10.07 86.94 10.51Q87.29 10.96 87.29 11.68L87.29 11.68Q87.29 12.70 86.65 13.37Q86.00 14.04 84.69 14.04L84.69 14.04Z"></path></g><!----><!----></svg>